# xmcd CD Database Entry
#
# Track frame offsets:
# 150
# 20827
# 40314
# 61556
# 86112
# 103125
# 132316
# 147139
# 172968
# 198291
# 220973
# 242653
# 266987
# 297787
# 315845
#
# Disc length: 4560 seconds
#
# Revision: 2
# Processed by: cddbd v1.4PL0 Copyright (c) Steve Scherf et al.
# Submitted via: tcd 2.0b
#
DISCID=d911ce0f
DTITLE=George Michael/Freeek - CD 1
DYEAR=1900
DGENRE=
TTITLE0=Freeek
TTITLE1=The long and winding Road
TTITLE2=As
TTITLE3=FastLove
TTITLE4=Too Funky
TTITLE5=Freedom90
TTITLE6=Faith
TTITLE7=Father Figure
TTITLE8=Star People
TTITLE9=Fantasy
TTITLE10=Waiting for that day
TTITLE11=Somebody tot love
TTITLE12=Jesus to a Chikld
TTITLE13=I knew you were waiting for me
TTITLE14=Don't let the sun go down on me
EXTD=
EXTT0=
EXTT1=
EXTT2=
EXTT3=
EXTT4=
EXTT5=
EXTT6=
EXTT7=
EXTT8=
EXTT9=
EXTT10=
EXTT11=
EXTT12=
EXTT13=
EXTT14=
PLAYORDER=
